<svg width="275" height="275" viewBox="0 0 275 275" fill="none" xmlns="http://www.w3.org/2000/svg">
<defs>
<linearGradient id="paint0_linear_40_2" x1="161.596" y1="72.8249" x2="107.884" y2="224.791" gradientUnits="userSpaceOnUse">
<stop stop-color="#007D73"/>
<stop offset="0.2358" stop-color="#027875"/>
<stop offset="0.5288" stop-color="#08687A"/>
<stop offset="0.8508" stop-color="#114F81"/>
<stop offset="1" stop-color="#164186"/>
</linearGradient>
<linearGradient id="paint1_linear_40_2" x1="176.894" y1="91.9432" x2="176.894" y2="133.417" gradientUnits="userSpaceOnUse">
<stop stop-color="#007D73"/>
<stop offset="0.2358" stop-color="#027875"/>
<stop offset="0.5288" stop-color="#08687A"/>
<stop offset="0.8508" stop-color="#114F81"/>
<stop offset="1" stop-color="#164186"/>
</linearGradient>
<linearGradient id="paint2_linear_40_2" x1="145.9" y1="69.7695" x2="133.213" y2="208.384" gradientUnits="userSpaceOnUse">
<stop stop-color="#4ADECE"/>
<stop offset="1" stop-color="#1697D7"/>
</linearGradient>
<linearGradient id="paint3_linear_40_2" x1="153.538" y1="58.2218" x2="123.961" y2="232.398" gradientUnits="userSpaceOnUse">
<stop stop-color="#D3F7FF"/>
<stop offset="0.6857" stop-color="#BCDDE6"/>
<stop offset="1" stop-color="#B0CFD9"/>
</linearGradient>
<linearGradient id="paint4_linear_40_2" x1="150.95" y1="73.5786" x2="100.825" y2="73.5786" gradientUnits="userSpaceOnUse">
<stop stop-color="#007D73"/>
<stop offset="0.2358" stop-color="#027875"/>
<stop offset="0.5288" stop-color="#08687A"/>
<stop offset="0.8508" stop-color="#114F81"/>
<stop offset="1" stop-color="#164186"/>
</linearGradient>
<linearGradient id="paint5_linear_40_2" x1="145.9" y1="69.7695" x2="133.213" y2="208.384" gradientUnits="userSpaceOnUse">
<stop stop-color="#4ADECE"/>
<stop offset="1" stop-color="#1697D7"/>
</linearGradient>
<linearGradient id="paint6_linear_40_2" x1="153.538" y1="58.2218" x2="123.961" y2="232.398" gradientUnits="userSpaceOnUse">
<stop stop-color="#D3F7FF"/>
<stop offset="0.6857" stop-color="#BCDDE6"/>
<stop offset="1" stop-color="#B0CFD9"/>
</linearGradient>
<linearGradient id="paint7_linear_40_2" x1="112.733" y1="110.441" x2="254.274" y2="92.7056" gradientUnits="userSpaceOnUse">
<stop stop-color="#4ADECE"/>
<stop offset="1" stop-color="#1697D7"/>
</linearGradient>
<linearGradient id="paint8_linear_40_2" x1="110.309" y1="87.7406" x2="251.85" y2="70.0054" gradientUnits="userSpaceOnUse">
<stop stop-color="#4ADECE"/>
<stop offset="1" stop-color="#1697D7"/>
</linearGradient>
<linearGradient id="paint9_linear_40_2" x1="69.5901" y1="132.867" x2="159.901" y2="121.551" gradientUnits="userSpaceOnUse">
<stop stop-color="#4ADECE"/>
<stop offset="1" stop-color="#1697D7"/>
</linearGradient>
<linearGradient id="paint10_linear_40_2" x1="118.353" y1="155.293" x2="259.894" y2="137.557" gradientUnits="userSpaceOnUse">
<stop stop-color="#4ADECE"/>
<stop offset="1" stop-color="#1697D7"/>
</linearGradient>
<linearGradient id="paint11_linear_40_2" x1="75.21" y1="177.719" x2="165.521" y2="166.403" gradientUnits="userSpaceOnUse">
<stop stop-color="#4ADECE"/>
<stop offset="1" stop-color="#1697D7"/>
</linearGradient>
<linearGradient id="paint12_linear_40_2" x1="176.155" y1="197.283" x2="117.703" y2="211.937" gradientUnits="userSpaceOnUse">
<stop stop-color="#4ADECE"/>
<stop offset="1" stop-color="#1697D7"/>
</linearGradient>
<linearGradient id="paint13_linear_40_2" x1="147.521" y1="234.468" x2="172.497" y2="190.431" gradientUnits="userSpaceOnUse">
<stop stop-color="#4ADECE"/>
<stop offset="1" stop-color="#1697D7"/>
</linearGradient>
<linearGradient id="paint14_linear_40_2" x1="150.95" y1="73.5786" x2="100.825" y2="73.5786" gradientUnits="userSpaceOnUse">
<stop stop-color="#007D73"/>
<stop offset="0.2358" stop-color="#027875"/>
<stop offset="0.5288" stop-color="#08687A"/>
<stop offset="0.8508" stop-color="#114F81"/>
<stop offset="1" stop-color="#164186"/>
</linearGradient>
<linearGradient id="paint15_linear_40_2" x1="170.012" y1="67.0089" x2="170.012" y2="206.87" gradientUnits="userSpaceOnUse">
<stop stop-color="#007D73"/>
<stop offset="0.2358" stop-color="#027875"/>
<stop offset="0.5288" stop-color="#08687A"/>
<stop offset="0.8508" stop-color="#114F81"/>
<stop offset="1" stop-color="#164186"/>
</linearGradient>
<linearGradient id="paint16_linear_40_2" x1="219.656" y1="101.905" x2="50.3566" y2="186.951" gradientUnits="userSpaceOnUse">
<stop stop-color="#FFECAD"/>
<stop offset="0.1041" stop-color="#EDE4AD" stop-opacity="0.8959"/>
<stop offset="0.3141" stop-color="#BCCFAC" stop-opacity="0.6859"/>
<stop offset="0.6112" stop-color="#6FACAB" stop-opacity="0.3888"/>
<stop offset="0.9811" stop-color="#067DAA" stop-opacity="0.0189"/>
<stop offset="1" stop-color="#007BAA" stop-opacity="0"/>
</linearGradient>
<linearGradient id="paint17_linear_40_2" x1="129.281" y1="68.2484" x2="116.594" y2="206.863" gradientUnits="userSpaceOnUse">
<stop stop-color="#4ADECE"/>
<stop offset="1" stop-color="#1697D7"/>
</linearGradient>
<linearGradient id="paint18_linear_40_2" x1="150.95" y1="71.9174" x2="100.825" y2="71.9174" gradientUnits="userSpaceOnUse">
<stop stop-color="#007D73"/>
<stop offset="0.2358" stop-color="#027875"/>
<stop offset="0.5288" stop-color="#08687A"/>
<stop offset="0.8508" stop-color="#114F81"/>
<stop offset="1" stop-color="#164186"/>
</linearGradient>
<linearGradient id="paint19_linear_40_2" x1="150.95" y1="71.9174" x2="100.825" y2="71.9174" gradientUnits="userSpaceOnUse">
<stop stop-color="#007D73"/>
<stop offset="0.2358" stop-color="#027875"/>
<stop offset="0.5288" stop-color="#08687A"/>
<stop offset="0.8508" stop-color="#114F81"/>
<stop offset="1" stop-color="#164186"/>
</linearGradient>
<linearGradient id="paint20_linear_40_2" x1="170.012" y1="67.0089" x2="170.012" y2="206.87" gradientUnits="userSpaceOnUse">
<stop stop-color="#007D73"/>
<stop offset="0.2358" stop-color="#027875"/>
<stop offset="0.5288" stop-color="#08687A"/>
<stop offset="0.8508" stop-color="#114F81"/>
<stop offset="1" stop-color="#164186"/>
</linearGradient>
<linearGradient id="paint21_linear_40_2" x1="219.656" y1="101.905" x2="50.3566" y2="186.951" gradientUnits="userSpaceOnUse">
<stop stop-color="#FFECAD"/>
<stop offset="0.1041" stop-color="#EDE4AD" stop-opacity="0.8959"/>
<stop offset="0.3141" stop-color="#BCCFAC" stop-opacity="0.6859"/>
<stop offset="0.6112" stop-color="#6FACAB" stop-opacity="0.3888"/>
<stop offset="0.9811" stop-color="#067DAA" stop-opacity="0.0189"/>
<stop offset="1" stop-color="#007BAA" stop-opacity="0"/>
</linearGradient>
<linearGradient id="paint22_linear_40_2" x1="201.587" y1="224.42" x2="88.2018" y2="75.003" gradientUnits="userSpaceOnUse">
<stop offset="0.00192308" stop-color="#CACDC2"/>
<stop offset="0.0841" stop-color="#CDBCB3"/>
<stop offset="0.2298" stop-color="#C59B9F"/>
<stop offset="0.3896" stop-color="#BB6A81"/>
<stop offset="0.5092" stop-color="#9E5574"/>
<stop offset="0.6577" stop-color="#634A66"/>
<stop offset="0.8595" stop-color="#253C4B"/>
<stop offset="1" stop-color="#052C35"/>
</linearGradient>
<linearGradient id="paint23_linear_40_2" x1="129.281" y1="68.2484" x2="116.594" y2="206.863" gradientUnits="userSpaceOnUse">
<stop stop-color="#4ADECE"/>
<stop offset="1" stop-color="#1697D7"/>
</linearGradient>
<linearGradient id="paint24_linear_40_2" x1="150.95" y1="71.9174" x2="100.825" y2="71.9174" gradientUnits="userSpaceOnUse">
<stop stop-color="#007D73"/>
<stop offset="0.2358" stop-color="#027875"/>
<stop offset="0.5288" stop-color="#08687A"/>
<stop offset="0.8508" stop-color="#114F81"/>
<stop offset="1" stop-color="#164186"/>
</linearGradient>
<linearGradient id="paint25_linear_40_2" x1="150.95" y1="71.9174" x2="100.825" y2="71.9174" gradientUnits="userSpaceOnUse">
<stop stop-color="#007D73"/>
<stop offset="0.2358" stop-color="#027875"/>
<stop offset="0.5288" stop-color="#08687A"/>
<stop offset="0.8508" stop-color="#114F81"/>
<stop offset="1" stop-color="#164186"/>
</linearGradient>
<linearGradient id="paint26_linear_40_2" x1="92.3865" y1="75.9215" x2="92.3865" y2="195.947" gradientUnits="userSpaceOnUse">
<stop stop-color="#4ADECE"/>
<stop offset="1" stop-color="#1697D7"/>
</linearGradient>
<linearGradient id="paint27_linear_40_2" x1="27.5472" y1="136.411" x2="102.392" y2="136.411" gradientUnits="userSpaceOnUse">
<stop stop-color="#007D73"/>
<stop offset="0.2358" stop-color="#027875"/>
<stop offset="0.5288" stop-color="#08687A"/>
<stop offset="0.8508" stop-color="#114F81"/>
<stop offset="1" stop-color="#164186"/>
</linearGradient>
<linearGradient id="paint28_linear_40_2" x1="89.5771" y1="75.9215" x2="89.5771" y2="195.947" gradientUnits="userSpaceOnUse">
<stop stop-color="#4ADECE"/>
<stop offset="1" stop-color="#1697D7"/>
</linearGradient>
<linearGradient id="paint29_linear_40_2" x1="27.5473" y1="114.517" x2="102.392" y2="114.517" gradientUnits="userSpaceOnUse">
<stop stop-color="#007D73"/>
<stop offset="0.2358" stop-color="#027875"/>
<stop offset="0.5288" stop-color="#08687A"/>
<stop offset="0.8508" stop-color="#114F81"/>
<stop offset="1" stop-color="#164186"/>
</linearGradient>
<linearGradient id="paint30_linear_40_2" x1="130.615" y1="145.501" x2="193.148" y2="145.501" gradientUnits="userSpaceOnUse">
<stop offset="0.00192308" stop-color="#CACDC2"/>
<stop offset="0.0841" stop-color="#CDBCB3"/>
<stop offset="0.2298" stop-color="#C59B9F"/>
<stop offset="0.3896" stop-color="#BB6A81"/>
<stop offset="0.5092" stop-color="#9E5574"/>
<stop offset="0.6577" stop-color="#634A66"/>
<stop offset="0.8595" stop-color="#253C4B"/>
<stop offset="1" stop-color="#052C35"/>
</linearGradient>
<linearGradient id="paint31_linear_40_2" x1="142.213" y1="140.304" x2="225.818" y2="140.304" gradientUnits="userSpaceOnUse">
<stop stop-color="#E8E0E3"/>
<stop offset="0.8065" stop-color="#C5EEFF"/>
</linearGradient>
<linearGradient id="paint32_linear_40_2" x1="148.487" y1="107.888" x2="211.654" y2="171.056" gradientUnits="userSpaceOnUse">
<stop stop-color="#1697D7"/>
<stop offset="1" stop-color="#4ADECE"/>
</linearGradient>
<linearGradient id="paint33_linear_40_2" x1="185.634" y1="119.248" x2="175.055" y2="165.09" gradientUnits="userSpaceOnUse">
<stop stop-color="#F88C57"/>
<stop offset="0.8259" stop-color="#D65B2B"/>
<stop offset="1" stop-color="#CE5021"/>
</linearGradient>
<linearGradient id="paint34_linear_40_2" x1="185.338" y1="170.303" x2="185.487" y2="123.948" gradientUnits="userSpaceOnUse">
<stop stop-color="#F6DE55"/>
<stop offset="0.3154" stop-color="#F6D355"/>
<stop offset="0.8672" stop-color="#F5B654"/>
<stop offset="1" stop-color="#F5AE54"/>
</linearGradient>
<linearGradient id="paint35_linear_40_2" x1="176.865" y1="198.941" x2="187.717" y2="142.652" gradientUnits="userSpaceOnUse">
<stop stop-color="#F6DE55"/>
<stop offset="0.3154" stop-color="#F6D355"/>
<stop offset="0.8672" stop-color="#F5B654"/>
<stop offset="1" stop-color="#F5AE54"/>
</linearGradient>
<linearGradient id="paint36_linear_40_2" x1="185.659" y1="109.376" x2="184.161" y2="152.559" gradientUnits="userSpaceOnUse">
<stop stop-color="#F6DE55"/>
<stop offset="0.3154" stop-color="#F6D355"/>
<stop offset="0.8672" stop-color="#F5B654"/>
<stop offset="1" stop-color="#F5AE54"/>
</linearGradient>
</defs>
<path d="M233 169.5C233 222.243 190.243 265 137.5 265C84.7568 265 42 222.243 42 169.5C42 116.757 84.7568 74 137.5 74C190.243 74 233 116.757 233 169.5Z" fill="#86CAF9"/>
<path d="M179.967 224.311C179.979 224.296 179.992 224.283 180.003 224.269C180.016 224.254 180.029 224.241 180.04 224.227C180.052 224.212 180.065 224.2 180.076 224.185C180.089 224.17 180.101 224.158 180.112 224.143C180.125 224.129 180.138 224.116 180.149 224.101C180.161 224.087 180.174 224.074 180.185 224.06C180.198 224.045 180.21 224.032 180.221 224.018C180.234 224.003 180.247 223.989 180.26 223.976C180.272 223.961 180.285 223.949 180.296 223.934C180.309 223.919 180.321 223.907 180.332 223.892C180.345 223.878 180.358 223.865 180.369 223.85C180.381 223.836 180.394 223.823 180.405 223.809C180.418 223.794 180.431 223.781 180.441 223.767C180.454 223.752 180.467 223.739 180.478 223.725C180.491 223.71 180.503 223.698 180.514 223.683C180.527 223.668 180.54 223.656 180.551 223.641C180.563 223.627 180.576 223.614 180.587 223.599C180.6 223.585 180.612 223.572 180.623 223.558C180.636 223.543 180.649 223.53 180.66 223.516C180.672 223.501 180.685 223.488 180.696 223.474C180.709 223.459 180.722 223.447 180.732 223.432C180.745 223.417 180.758 223.405 180.769 223.39C180.782 223.376 180.794 223.363 180.805 223.348C180.818 223.334 180.831 223.321 180.842 223.307C180.854 223.292 180.867 223.279 180.878 223.265C180.891 223.25 180.903 223.237 180.914 223.223C180.927 223.208 180.94 223.196 180.951 223.181C180.963 223.166 180.976 223.154 180.989 223.139C181.002 223.125 181.014 223.112 181.025 223.097C181.038 223.083 181.051 223.07 181.062 223.056C181.074 223.041 181.087 223.028 181.098 223.014C181.111 222.999 181.123 222.986 181.134 222.972C181.147 222.957 181.16 222.945 181.171 222.93C181.184 222.915 181.196 222.903 181.207 222.888C181.22 222.874 181.233 222.861 181.244 222.846C181.256 222.832 181.269 222.819 181.28 222.805C181.293 222.79 181.305 222.777 181.316 222.763C181.329 222.748 181.342 222.735 181.353 222.721C181.365 222.706 181.378 222.694 181.389 222.679C181.402 222.665 181.415 222.652 181.425 222.637C181.438 222.623 181.451 222.61 181.462 222.595C181.475 222.581 181.487 222.568 181.498 222.554C181.511 222.539 181.524 222.526 181.535 222.512C181.547 222.497 181.56 222.484 181.571 222.47C181.584 222.455 181.596 222.443 181.607 222.428C181.62 222.414 181.633 222.401 181.644 222.386C181.656 222.372 181.669 222.359 181.68 222.344C181.693 222.33 181.706 222.315 181.718 222.303C181.731 222.288 181.744 222.275 181.755 222.261C181.767 222.246 181.78 222.233 181.791 222.219C181.804 222.204 181.816 222.192 181.827 222.177C181.84 222.163 181.853 222.15 181.864 222.135C181.876 222.121 181.889 222.108 181.9 222.093C181.913 222.079 181.926 222.066 181.937 222.052C181.949 222.037 181.962 222.024 181.973 222.01C181.986 221.995 181.998 221.982 182.009 221.968C182.022 221.953 182.035 221.941 182.046 221.926C182.058 221.912 182.071 221.899 182.082 221.884C182.095 221.87 182.107 221.857 182.118 221.842C182.131 221.828 182.144 221.815 182.155 221.801C182.167 221.786 182.18 221.773 182.191 221.759C182.204 221.744 182.217 221.731 182.228 221.717C182.24 221.702 182.253 221.69 182.264 221.675C182.277 221.661 182.289 221.648 182.3 221.633C182.313 221.619 182.326 221.606 182.337 221.591C182.349 221.577 182.362 221.564 182.373 221.55C182.386 221.535 182.398 221.522 182.409 221.508C182.422 221.493 182.435 221.479 182.448 221.466C182.46 221.451 182.473 221.439 182.484 221.424C182.497 221.41 182.509 221.397 182.52 221.382C182.533 221.368 182.546 221.355 182.557 221.34C182.569 221.326 182.582 221.313 182.593 221.299C182.606 221.284 182.619 221.271 182.629 221.257C182.642 221.242 182.655 221.229 182.666 221.215C182.679 221.2 182.691 221.188 182.702 221.173C182.715 221.159 182.728 221.146 182.739 221.131C182.751 221.117 182.764 221.104 182.775 221.089C182.788 221.075 182.8 221.062 182.811 221.048C182.824 221.033 182.837 221.02 182.848 221.006C182.86 220.991 182.873 220.979 182.884 220.964C182.897 220.949 182.91 220.937 182.92 220.922C182.933 220.908 182.946 220.895 182.957 220.88C182.97 220.866 182.982 220.853 182.993 220.838C183.006 220.824 183.019 220.811 183.03 220.797C183.042 220.782 183.055 220.769 183.066 220.755C183.079 220.74 183.091 220.728 183.102 220.713C183.115 220.698 183.128 220.686 183.139 220.671C183.151 220.657 183.164 220.642 183.177 220.629C183.19 220.615 183.202 220.602 183.213 220.587C183.226 220.573 183.239 220.56 183.25 220.546C183.262 220.531 183.275 220.518 183.286 220.504C183.299 220.489 183.312 220.477 183.322 220.462C183.335 220.447 183.348 220.435 183.359 220.42C183.372 220.406 183.384 220.393 183.395 220.378C183.408 220.364 183.421 220.351 183.432 220.336C183.444 220.322 183.457 220.309 183.468 220.295C183.481 220.28 183.493 220.267 183.504 220.253C183.517 220.238 183.53 220.226 183.541 220.211C183.553 220.196 183.566 220.184 183.577 220.169C183.59 220.155 183.603 220.142 183.613 220.127C183.626 220.113 183.639 220.1 183.65 220.085C183.663 220.071 183.675 220.058 183.686 220.044C183.699 220.029 183.712 220.016 183.723 220.002C183.735 219.987 183.748 219.975 183.759 219.96C183.772 219.945 183.784 219.933 183.795 219.918C183.808 219.904 183.821 219.891 183.832 219.876C183.844 219.862 183.857 219.849 183.868 219.834C183.881 219.82 183.894 219.805 183.906 219.793C183.919 219.778 183.932 219.765 183.943 219.751C183.955 219.736 183.968 219.724 183.979 219.709C183.992 219.694 184.004 219.682 184.015 219.667C184.028 219.653 184.041 219.64 184.052 219.625C184.064 219.611 184.077 219.598 184.088 219.584C184.101 219.569 184.114 219.556 184.124 219.542C184.137 219.527 184.15 219.514 184.161 219.5C184.174 219.485 184.186 219.473 184.197 219.458C184.21 219.443 184.223 219.431 184.234 219.416C184.246 219.402 184.259 219.389 184.27 219.374C184.283 219.36 184.295 219.347 184.306 219.333C184.319 219.318 184.332 219.305 184.343 219.291C184.355 219.276 184.368 219.263 184.379 219.249C184.392 219.234 184.405 219.222 184.416 219.207C184.428 219.192 184.441 219.18 184.452 219.165C184.465 219.151 184.477 219.138 184.488 219.123C184.501 219.109 184.514 219.096 184.525 219.082C184.537 219.067 184.55 219.054 184.561 219.04C184.574 219.025 184.586 219.012 184.597 218.998C184.61 218.983 184.623 218.969 184.636 218.956C184.648 218.941 184.661 218.929 184.672 218.914C184.685 218.9 184.697 218.887 184.708 218.872C184.721 218.858 184.734 218.845 184.745 218.831C184.757 218.816 184.77 218.803 184.781 218.789C184.794 218.774 184.807 218.761 184.817 218.747C184.83 218.732 184.843 218.72 184.854 218.705C184.867 218.69 184.879 218.678 184.89 218.663C184.903 218.649 184.916 218.636 184.927 218.621C184.939 218.607 184.952 218.594 184.963 218.58C184.976 218.565 184.988 218.552 184.999 218.538C185.012 218.523 185.025 218.51 185.036 218.496C185.048 218.481 185.061 218.469 185.072 218.454C185.085 218.439 185.098 218.427 185.108 218.412C185.121 218.398 185.134 218.385 185.145 218.37C185.158 218.356 185.17 218.343 185.181 218.329C185.194 218.314 185.207 218.301 185.218 218.287C185.23 218.272 185.243 218.259 185.254 218.245C185.267 218.23 185.279 218.218 185.29 218.203C185.303 218.188 185.316 218.176 185.327 218.161C185.339 218.147 185.352 218.132 185.365 218.119C185.378 218.105 185.39 218.092 185.401 218.078C185.414 218.063 185.427 218.05 185.438 218.036C185.45 218.021 185.463 218.008 185.474 217.994C185.487 217.979 185.499 217.967 185.51 217.952C185.523 217.937 185.536 217.925 185.547 217.91C185.56 217.896 185.572 217.883 185.583 217.868C185.596 217.854 185.609 217.841 185.62 217.827C185.632 217.812 185.645 217.799 185.656 217.785C185.669 217.77 185.681 217.757 185.692 217.743C185.705 217.728 185.718 217.716 185.729 217.701C185.741 217.686 185.754 217.674 185.765 217.659C185.778 217.645 185.791 217.632 185.801 217.617C185.814 217.603 185.827 217.59 185.838 217.576C185.851 217.561 185.863 217.548 185.874 217.534C185.887 217.519 185.9 217.506 185.911 217.492C185.923 217.477 185.936 217.465 185.947 217.45C185.96 217.436 185.972 217.423 185.983 217.408C185.996 217.394 186.009 217.381 186.02 217.366C186.032 217.352 186.045 217.339 186.056 217.325C186.069 217.31 186.082 217.297 186.092 217.283C186.105 217.268 186.118 217.255 186.129 217.241C186.142 217.226 186.154 217.214 186.165 217.199C186.178 217.185 186.191 217.172 186.202 217.157C186.214 217.143 186.227 217.13 186.238 217.115C186.251 217.101 186.263 217.088 186.274 217.074C186.287 217.059 186.3 217.046 186.311 217.032C186.323 217.017 186.336 217.004 186.347 216.99C186.36 216.975 186.373 216.963 186.383 216.948C186.396 216.934 186.409 216.921 186.42 216.906C186.433 216.892 186.445 216.879 186.456 216.864C186.469 216.85 186.482 216.837 186.493 216.823C186.505 216.808 186.518 216.795 186.529 216.781C186.542 216.766 186.554 216.753 186.565 216.739C186.578 216.724 186.591 216.712 186.602 216.697C186.614 216.683 186.627 216.67 186.638 216.655C186.651 216.641 186.664 216.628 186.674 216.613C186.687 216.599 186.7 216.586 186.711 216.572C186.724 216.557 186.736 216.544 186.747 216.53C186.76 216.515 186.773 216.502 186.784 216.488C186.796 216.473 186.809 216.461 186.82 216.446C186.833 216.432 186.845 216.419 186.856 216.404C186.869 216.39 186.882 216.377 186.893 216.362C186.905 216.348 186.918 216.335 186.929 216.321C186.942 216.306 186.955 216.293 186.965 216.279C186.978 216.264 186.991 216.251 187.002 216.237C187.015 216.222 187.027 216.21 187.038 216.195C187.051 216.181 187.064 216.168 187.075 216.153C187.087 216.139 187.1 216.126 187.111 216.111C187.124 216.097 187.136 216.084 187.147 216.07C187.16 216.055 187.173 216.042 187.184 216.028C188.77 214.224 189.574 211.723 189.219 208.96L172.124 75.745C171.418 70.2414 166.384 65.7799 160.88 65.7799H97.8651C95.1042 65.7799 92.7488 66.9039 91.1774 68.7191C91.1647 68.7336 91.1519 68.7464 91.141 68.7609C91.1283 68.7755 91.1156 68.7882 91.1046 68.8028C91.0919 68.8173 91.0792 68.83 91.0683 68.8446C91.0555 68.8591 91.0428 68.8719 91.0319 68.8864C91.0192 68.901 91.0064 68.9137 90.9955 68.9283C90.9828 68.9428 90.9701 68.9555 90.9591 68.9701C90.9464 68.9846 90.9337 68.9974 90.9228 69.0119C90.91 69.0265 90.8973 69.0392 90.8864 69.0537C90.8737 69.0683 90.8609 69.081 90.85 69.0956C90.8373 69.1101 90.8246 69.1229 90.8136 69.1374C90.8009 69.152 90.7882 69.1647 90.7773 69.1792C90.7645 69.1938 90.7518 69.2065 90.7409 69.2211C90.7282 69.2356 90.7154 69.2484 90.7045 69.2629C90.6918 69.2775 90.6791 69.2902 90.6681 69.3047C90.6554 69.3193 90.6427 69.332 90.6318 69.3466C90.619 69.3611 90.6063 69.3739 90.5954 69.3884C90.5827 69.403 90.5699 69.4157 90.559 69.4302C90.5463 69.4448 90.5335 69.4575 90.5226 69.4721C90.5099 69.4866 90.4972 69.4993 90.4863 69.5139C90.4735 69.5284 90.4608 69.5412 90.4499 69.5557C90.4372 69.5703 90.4244 69.583 90.4135 69.5976C90.4008 69.6121 90.388 69.6248 90.3771 69.6394C90.3644 69.6539 90.3517 69.6667 90.3408 69.6812C90.328 69.6958 90.3153 69.7085 90.3044 69.7231C90.2917 69.7376 90.2789 69.7503 90.268 69.7649C90.2553 69.7794 90.2425 69.7922 90.2316 69.8067C90.2189 69.8213 90.2062 69.834 90.1953 69.8486C90.1825 69.8631 90.1698 69.8758 90.1589 69.8904C90.1461 69.9049 90.1334 69.9177 90.1225 69.9322C90.1098 69.9468 90.097 69.9595 90.0861 69.9741C90.0734 69.9886 90.0607 70.0013 90.0498 70.0159C90.037 70.0304 90.0243 70.0432 90.0134 70.0577C90.0006 70.0723 89.9879 70.085 89.977 70.0995C89.9643 70.1141 89.9515 70.1268 89.9406 70.1414C89.9279 70.1559 89.9152 70.1687 89.9042 70.1832C89.8915 70.1978 89.8788 70.2105 89.8661 70.225C89.8533 70.2396 89.8406 70.2523 89.8297 70.2669C89.8169 70.2814 89.8042 70.2942 89.7933 70.3087C89.7806 70.3233 89.7678 70.336 89.7569 70.3505C89.7442 70.3651 89.7315 70.3778 89.7206 70.3924C89.7078 70.4069 89.6951 70.4197 89.6842 70.4342C89.6714 70.4488 89.6587 70.4615 89.6478 70.476C89.6351 70.4906 89.6223 70.5033 89.6114 70.5179C89.5987 70.5324 89.586 70.5451 89.5751 70.5597C89.5623 70.5742 89.5496 70.587 89.5387 70.6015C89.5259 70.6161 89.5132 70.6288 89.5023 70.6434C89.4896 70.6579 89.4768 70.6706 89.4659 70.6852C89.4532 70.6997 89.4405 70.7125 89.4296 70.727C89.4168 70.7416 89.4041 70.7543 89.3932 70.7689C89.3804 70.7834 89.3677 70.7961 89.3568 70.8107C89.3441 70.8252 89.3313 70.838 89.3204 70.8525C89.3077 70.8671 89.295 70.8798 89.284 70.8944C89.2713 70.9089 89.2586 70.9216 89.2477 70.9362C89.2349 70.9507 89.2222 70.9635 89.2113 70.978C89.1986 70.9926 89.1858 71.0053 89.1749 71.0199C89.1622 71.0344 89.1495 71.0489 89.1367 71.0617C89.124 71.0762 89.1113 71.089 89.1004 71.1035C89.0876 71.1181 89.0749 71.1308 89.064 71.1453C89.0512 71.1599 89.0385 71.1726 89.0276 71.1872C89.0149 71.2017 89.0021 71.2145 88.9912 71.229C88.9785 71.2436 88.9658 71.2563 88.9548 71.2708C88.9421 71.2854 88.9294 71.2981 88.9185 71.3127C88.9057 71.3272 88.893 71.34 88.8821 71.3545C88.8694 71.3691 88.8566 71.3818 88.8457 71.3963C88.833 71.4109 88.8203 71.4236 88.8093 71.4382C88.7966 71.4527 88.7839 71.4655 88.773 71.48C88.7602 71.4946 88.7475 71.5073 88.7366 71.5218C88.7239 71.5364 88.7111 71.5491 88.7002 71.5637C88.6875 71.5782 88.6748 71.5909 88.6638 71.6055C88.6511 71.62 88.6384 71.6328 88.6275 71.6473C88.6147 71.6619 88.602 71.6746 88.5911 71.6892C88.5784 71.7037 88.5656 71.7164 88.5547 71.731C88.542 71.7455 88.5293 71.7583 88.5183 71.7728C88.5056 71.7874 88.4929 71.8001 88.482 71.8147C88.4692 71.8292 88.4565 71.8419 88.4456 71.8565C88.4329 71.871 88.4201 71.8856 88.4074 71.8983C88.3947 71.9129 88.3819 71.9256 88.371 71.9402C88.3583 71.9547 88.3456 71.9674 88.3346 71.982C88.3219 71.9965 88.3092 72.0093 88.2983 72.0238C88.2855 72.0384 88.2728 72.0511 88.2619 72.0657C88.2492 72.0802 88.2364 72.0929 88.2255 72.1075C88.2128 72.122 88.2001 72.1348 88.1891 72.1493C88.1764 72.1639 88.1637 72.1766 88.1528 72.1911C88.14 72.2057 88.1273 72.2184 88.1164 72.233C88.1037 72.2475 88.0909 72.2603 88.08 72.2748C88.0673 72.2894 88.0545 72.3021 88.0436 72.3166C88.0309 72.3312 88.0182 72.3439 88.0073 72.3585C87.9945 72.373 87.9818 72.3858 87.9709 72.4003C87.9582 72.4149 87.9454 72.4276 87.9345 72.4421C87.9218 72.4567 87.909 72.4694 87.8981 72.484C87.8854 72.4985 87.8727 72.5113 87.8618 72.5258C87.849 72.5404 87.8363 72.5531 87.8254 72.5676C87.8127 72.5822 87.7999 72.5949 87.789 72.6095C87.7763 72.624 87.7635 72.6367 87.7526 72.6513C87.7399 72.6658 87.7272 72.6786 87.7163 72.6931C87.7035 72.7077 87.6908 72.7222 87.6781 72.735C87.6653 72.7495 87.6526 72.7622 87.6417 72.7768C87.629 72.7913 87.6162 72.8041 87.6053 72.8186C87.5926 72.8332 87.5798 72.8459 87.5689 72.8605C87.5562 72.875 87.5435 72.8877 87.5326 72.9023C87.5198 72.9168 87.5071 72.9296 87.4962 72.9441C87.4835 72.9587 87.4707 72.9714 87.4598 72.986C87.4471 73.0005 87.4343 73.0132 87.4234 73.0278C87.4107 73.0423 87.398 73.0551 87.3871 73.0696C87.3743 73.0842 87.3616 73.0969 87.3507 73.1115C87.3379 73.126 87.3252 73.1387 87.3143 73.1533C87.3016 73.1678 87.2888 73.1806 87.2779 73.1951C87.2652 73.2097 87.2525 73.2224 87.2416 73.2369C87.2288 73.2515 87.2161 73.2642 87.2052 73.2788C87.1924 73.2933 87.1797 73.3061 87.1688 73.3206C87.1561 73.3352 87.1433 73.3479 87.1324 73.3624C87.1197 73.377 87.107 73.3897 87.096 73.4043C87.0833 73.4188 87.0706 73.4316 87.0597 73.4461C87.0469 73.4607 87.0342 73.4734 87.0233 73.4879C87.0106 73.5025 86.9978 73.5152 86.9869 73.5298C86.9742 73.5443 86.9615 73.5589 86.9487 73.5716C86.936 73.5862 86.9233 73.5989 86.9123 73.6134C86.8996 73.628 86.8869 73.6407 86.876 73.6553C86.8632 73.6698 86.8505 73.6825 86.8396 73.6971C86.8269 73.7117 86.8141 73.7244 86.8032 73.7389C86.7905 73.7535 86.7778 73.7662 86.7668 73.7808C86.7541 73.7953 86.7414 73.808 86.7305 73.8226C86.7177 73.8371 86.705 73.8499 86.6941 73.8644C86.6814 73.879 86.6686 73.8917 86.6577 73.9063C86.645 73.9208 86.6323 73.9335 86.6213 73.9481C86.6086 73.9626 86.5959 73.9754 86.585 73.9899C86.5722 74.0045 86.5595 74.0172 86.5486 74.0318C86.5359 74.0463 86.5231 74.059 86.5122 74.0736C86.4995 74.0881 86.4868 74.1009 86.4758 74.1154C86.4631 74.13 86.4504 74.1427 86.4395 74.1573C86.4267 74.1718 86.414 74.1845 86.4031 74.1991C86.3904 74.2136 86.3776 74.2264 86.3667 74.2409C86.354 74.2555 86.3413 74.2682 86.3303 74.2827C86.3176 74.2973 86.3049 74.31 86.294 74.3246C86.2812 74.3391 86.2685 74.3519 86.2576 74.3664C86.2449 74.381 86.2321 74.3937 86.2194 74.4082C86.2067 74.4228 86.1939 74.4355 86.183 74.4501C86.1703 74.4646 86.1576 74.4774 86.1466 74.4919C86.1339 74.5065 86.1212 74.5192 86.1103 74.5337C86.0975 74.5483 86.0848 74.561 86.0739 74.5756C86.0612 74.5901 86.0484 74.6029 86.0375 74.6174C86.0248 74.632 86.0121 74.6447 86.0011 74.6592C85.9884 74.6738 85.9757 74.6865 85.9648 74.7011C85.952 74.7156 85.9393 74.7283 85.9284 74.7429C85.9157 74.7575 85.9029 74.7702 85.892 74.7847C85.8793 74.7993 85.8665 74.812 85.8556 74.8266C85.8429 74.8411 85.8302 74.8538 85.8193 74.8684C85.8065 74.8829 85.7938 74.8957 85.7829 74.9102C85.7702 74.9248 85.7574 74.9375 85.7465 74.9521C85.7338 74.9666 85.721 74.9793 85.7101 74.9939C85.6974 75.0084 85.6847 75.0212 85.6738 75.0357C85.661 75.0503 85.6483 75.063 85.6374 75.0776C85.6247 75.0921 85.6119 75.1048 85.601 75.1194C85.5883 75.1339 85.5755 75.1467 85.5646 75.1612C85.5519 75.1758 85.5392 75.1885 85.5283 75.2031C85.5155 75.2176 85.5028 75.2303 85.4919 75.2449C85.4791 75.2594 85.4664 75.2722 85.4555 75.2867C85.4428 75.3013 85.43 75.314 85.4191 75.3285C85.4064 75.3431 85.3937 75.3558 85.3828 75.3704C85.37 75.3849 85.3573 75.3977 85.3464 75.4122C85.3336 75.4268 85.3209 75.4395 85.31 75.454C85.2973 75.4686 85.2845 75.4813 85.2736 75.4959C85.2609 75.5104 85.2482 75.5232 85.2373 75.5377C85.2245 75.5523 85.2118 75.565 85.2009 75.5795C85.1881 75.5941 85.1754 75.6068 85.1645 75.6214C85.1518 75.6359 85.139 75.6487 85.1281 75.6632C85.1154 75.6778 85.1027 75.6905 85.0918 75.705C85.079 75.7196 85.0663 75.7323 85.0554 75.7469C85.0426 75.7614 85.0299 75.7742 85.019 75.7887C85.0063 75.8033 84.9935 75.816 84.9826 75.8305C84.9699 75.8451 84.9572 75.8578 84.9462 75.8724C84.9335 75.8869 84.9208 75.8996 84.9099 75.9142C84.8971 75.9287 84.8844 75.9415 84.8735 75.956C84.8608 75.9706 84.848 75.9833 84.8371 75.9979C84.8244 76.0124 84.8117 76.0251 84.8007 76.0397C84.788 76.0542 84.7753 76.067 84.7644 76.0815C84.7516 76.0961 84.7389 76.1088 84.728 76.1234C84.7153 76.1379 84.7025 76.1506 84.6916 76.1652C84.6789 76.1797 84.6662 76.1925 84.6552 76.207C84.6425 76.2216 84.6298 76.2343 84.6189 76.2489C84.6061 76.2634 84.5934 76.2761 84.5825 76.2907C84.5698 76.3052 84.557 76.318 84.5461 76.3325C84.5334 76.3471 84.5207 76.3598 84.5097 76.3743C84.497 76.3889 84.4843 76.4016 84.4734 76.4162C84.4606 76.4307 84.4479 76.4435 84.437 76.458C84.4243 76.4726 84.4115 76.4853 84.4006 76.4998C84.3879 76.5144 84.3752 76.5271 84.3642 76.5417C84.3515 76.5562 84.3388 76.569 84.3279 76.5835C84.3151 76.5981 84.3024 76.6108 84.2915 76.6253C84.2788 76.6399 84.266 76.6526 84.2551 76.6672C84.2424 76.6817 84.2296 76.6945 84.2169 76.709C84.2042 76.7236 84.1915 76.7363 84.1805 76.7508C84.1678 76.7654 84.1551 76.7781 84.1442 76.7927C84.1314 76.8072 84.1187 76.82 84.1078 76.8345C84.0951 76.8491 84.0823 76.8618 84.0714 76.8763C84.0587 76.8909 84.046 76.9036 84.035 76.9182C84.0223 76.9327 84.0096 76.9454 83.9987 76.96C83.9859 76.9745 83.9732 76.9873 83.9623 77.0018C83.9496 77.0164 83.9368 77.0291 83.9259 77.0437C82.3399 78.8479 81.536 81.3487 81.8907 84.1114L98.9854 217.326C99.6911 222.83 104.726 227.291 110.229 227.291H173.372C176.133 227.291 178.488 226.167 180.06 224.352C179.943 224.338 179.956 224.325 179.967 224.311Z" fill="url(#paint0_linear_40_2)"/>
<path d="M178.002 123.986C176.722 123.986 175.549 122.948 175.385 121.668L173.765 109.043C173.601 107.763 174.505 106.724 175.787 106.724C177.068 106.724 178.241 107.763 178.404 109.043L180.025 121.668C180.189 122.948 179.283 123.986 178.002 123.986Z" fill="url(#paint1_linear_40_2)"/>
<path d="M180.66 218.861H117.517C112.013 218.861 106.979 214.4 106.273 208.896L89.1786 75.6814C88.4729 70.1777 92.3615 65.7163 97.8651 65.7163H161.008C166.511 65.7163 171.546 70.1777 172.252 75.6814L189.346 208.896C190.052 214.4 186.163 218.861 180.66 218.861Z" fill="url(#paint2_linear_40_2)"/>
<path d="M177.677 213.596H119.149C115.405 213.596 111.983 210.562 111.502 206.819L94.9405 77.7603C94.4604 74.0172 97.1049 70.9835 100.848 70.9835H159.376C163.119 70.9835 166.542 74.0172 167.023 77.7603L183.583 206.819C184.065 210.562 181.42 213.596 177.677 213.596Z" fill="url(#paint3_linear_40_2)"/>
<path d="M111.721 70.9835L113.285 73.768C114.105 75.2285 115.666 76.1743 117.257 76.1743H139.924C141.516 76.1743 142.835 75.2285 143.28 73.768L144.129 70.9835H111.721Z" fill="url(#paint4_linear_40_2)"/>
<path d="M180.66 218.861H117.517C112.013 218.861 106.979 214.4 106.273 208.896L89.1786 75.6814C88.4729 70.1777 92.3615 65.7163 97.8651 65.7163H161.008C166.511 65.7163 171.546 70.1777 172.252 75.6814L189.346 208.896C190.052 214.4 186.163 218.861 180.66 218.861Z" fill="url(#paint5_linear_40_2)"/>
<path d="M177.677 213.596H119.149C115.405 213.596 111.983 210.562 111.502 206.819L94.9405 77.7603C94.4604 74.0172 97.1049 70.9835 100.848 70.9835H159.376C163.119 70.9835 166.542 74.0172 167.023 77.7603L183.583 206.819C184.065 210.562 181.42 213.596 177.677 213.596Z" fill="url(#paint6_linear_40_2)"/>
<path d="M143.329 115.362H109.129L103.82 119.758L102.376 108.241C101.883 104.309 104.671 101.121 108.603 101.121H141.543C145.475 101.121 149.062 104.309 149.555 108.241C150.05 112.175 147.261 115.362 143.329 115.362Z" fill="url(#paint7_linear_40_2)"/>
<path d="M140.903 92.6615H106.704L101.395 97.0575L99.9512 85.541C99.4584 81.6088 102.247 78.4205 106.179 78.4205H139.119C143.051 78.4205 146.638 81.6088 147.13 85.541C147.623 89.475 144.835 92.6615 140.903 92.6615Z" fill="url(#paint8_linear_40_2)"/>
<path d="M129.19 137.787H163.39L169.802 142.183L168.358 130.667C167.865 126.735 164.278 123.546 160.346 123.546H127.406C123.474 123.546 120.685 126.735 121.178 130.667C121.671 134.601 125.258 137.787 129.19 137.787Z" fill="url(#paint9_linear_40_2)"/>
<path d="M148.951 160.215H114.751L109.442 164.611L107.998 153.094C107.505 149.162 110.293 145.974 114.225 145.974H147.165C151.097 145.974 154.684 149.162 155.177 153.094C155.671 157.026 152.883 160.215 148.951 160.215Z" fill="url(#paint10_linear_40_2)"/>
<path d="M134.812 182.64H169.012L175.423 187.036L173.979 175.52C173.486 171.588 169.9 168.399 165.968 168.399H133.028C129.095 168.399 126.307 171.588 126.8 175.52C127.293 179.452 130.88 182.64 134.812 182.64Z" fill="url(#paint11_linear_40_2)"/>
<path d="M118.55 192.265H170.378C173.15 192.265 175.678 194.512 176.025 197.283C176.373 200.055 174.409 202.301 171.637 202.301H119.809C117.037 202.301 114.509 200.055 114.161 197.283C113.814 194.512 115.778 192.265 118.55 192.265Z" fill="#DAF1F1" stroke="url(#paint12_linear_40_2)" stroke-miterlimit="10"/>
<path d="M162.956 192.265H170.378C173.15 192.265 175.678 194.512 176.025 197.283C176.373 200.055 174.409 202.301 171.637 202.301H164.214L162.956 192.265Z" fill="url(#paint13_linear_40_2)"/>
<path d="M105.269 83.4221L142.694 83.3857" stroke="#00BDB7" stroke-width="2" stroke-miterlimit="10" stroke-linecap="round" stroke-linejoin="round"/>
<path d="M105.95 87.6017L143.375 87.5635" stroke="#00BDB7" stroke-width="2" stroke-miterlimit="10" stroke-linecap="round" stroke-linejoin="round"/>
<path d="M107.379 105.88L144.804 105.844" stroke="#00BDB7" stroke-width="2" stroke-miterlimit="10" stroke-linecap="round" stroke-linejoin="round"/>
<path d="M108.059 110.06L145.484 110.022" stroke="#00BDB7" stroke-width="2" stroke-miterlimit="10" stroke-linecap="round" stroke-linejoin="round"/>
<path d="M113.47 151.114L150.894 151.077" stroke="#00BDB7" stroke-width="2" stroke-miterlimit="10" stroke-linecap="round" stroke-linejoin="round"/>
<path d="M114.151 155.293L151.574 155.255" stroke="#00BDB7" stroke-width="2" stroke-miterlimit="10" stroke-linecap="round" stroke-linejoin="round"/>
<path d="M126.409 128.179L163.834 128.142" stroke="#007AB7" stroke-width="2" stroke-miterlimit="10" stroke-linecap="round" stroke-linejoin="round"/>
<path d="M127.089 132.358L164.514 132.322" stroke="#007AB7" stroke-width="2" stroke-miterlimit="10" stroke-linecap="round" stroke-linejoin="round"/>
<path d="M132.031 173.115L169.456 173.079" stroke="#007AB7" stroke-width="2" stroke-miterlimit="10" stroke-linecap="round" stroke-linejoin="round"/>
<path d="M132.711 177.295L170.136 177.259" stroke="#007AB7" stroke-width="2" stroke-miterlimit="10" stroke-linecap="round" stroke-linejoin="round"/>
<path d="M111.721 70.9835L113.285 73.768C114.105 75.2285 115.666 76.1743 117.257 76.1743H139.924C141.516 76.1743 142.835 75.2285 143.28 73.768L144.129 70.9835H111.721Z" fill="url(#paint14_linear_40_2)"/>
<path d="M159.376 70.9835H156.383C160.126 70.9835 163.549 74.0172 164.029 77.7603L180.589 206.819C181.069 210.562 178.424 213.596 174.681 213.596H177.675C181.418 213.596 184.063 210.562 183.583 206.819L167.023 77.7603C166.544 74.0172 163.119 70.9835 159.376 70.9835Z" fill="url(#paint15_linear_40_2)"/>
<path d="M177.677 213.596H119.149C115.405 213.596 111.983 210.562 111.502 206.819L94.9405 77.7603C94.4604 74.0172 97.1049 70.9835 100.848 70.9835H159.376C163.119 70.9835 166.542 74.0172 167.023 77.7603L183.583 206.819C184.065 210.562 181.42 213.596 177.677 213.596Z" fill="url(#paint16_linear_40_2)"/>
<path d="M142.172 76.1743H119.505C117.914 76.1743 116.351 75.2285 115.533 73.768L111.055 65.7908H147.958L145.528 73.768C145.082 75.2285 143.764 76.1743 142.172 76.1743Z" fill="url(#paint17_linear_40_2)"/>
<path d="M136.447 72.8514H119.969C119.452 72.8514 118.981 72.4331 118.914 71.9165C118.848 71.4 119.212 70.9817 119.729 70.9817H136.207C136.723 70.9817 137.194 71.4 137.262 71.9165C137.329 72.4331 136.963 72.8514 136.447 72.8514Z" fill="url(#paint18_linear_40_2)"/>
<path d="M141.669 71.9183C141.763 72.6495 141.245 73.2424 140.514 73.2424C139.783 73.2424 139.113 72.6495 139.019 71.9183C138.924 71.1872 139.442 70.5943 140.174 70.5943C140.907 70.5924 141.576 71.1854 141.669 71.9183Z" fill="url(#paint19_linear_40_2)"/>
<path d="M159.376 70.9835H156.383C160.126 70.9835 163.549 74.0172 164.029 77.7603L180.589 206.819C181.069 210.562 178.424 213.596 174.681 213.596H177.675C181.418 213.596 184.063 210.562 183.583 206.819L167.023 77.7603C166.544 74.0172 163.119 70.9835 159.376 70.9835Z" fill="url(#paint20_linear_40_2)"/>
<path d="M177.677 213.596H119.149C115.405 213.596 111.983 210.562 111.502 206.819L94.9405 77.7603C94.4604 74.0172 97.1049 70.9835 100.848 70.9835H159.376C163.119 70.9835 166.542 74.0172 167.023 77.7603L183.583 206.819C184.065 210.562 181.42 213.596 177.677 213.596Z" fill="url(#paint21_linear_40_2)"/>
<path d="M177.677 213.596H119.149C115.405 213.596 111.983 210.562 111.502 206.819L94.9405 77.7603C94.4604 74.0172 97.1049 70.9835 100.848 70.9835H159.376C163.119 70.9835 166.542 74.0172 167.023 77.7603L183.583 206.819C184.065 210.562 181.42 213.596 177.677 213.596Z" fill="url(#paint22_linear_40_2)"/>
<path d="M142.172 76.1743H119.505C117.914 76.1743 116.351 75.2285 115.533 73.768L111.055 65.7908H147.958L145.528 73.768C145.082 75.2285 143.764 76.1743 142.172 76.1743Z" fill="url(#paint23_linear_40_2)"/>
<path d="M136.447 72.8514H119.969C119.452 72.8514 118.981 72.4331 118.914 71.9165C118.848 71.4 119.212 70.9817 119.729 70.9817H136.207C136.723 70.9817 137.194 71.4 137.262 71.9165C137.329 72.4331 136.963 72.8514 136.447 72.8514Z" fill="url(#paint24_linear_40_2)"/>
<path d="M141.669 71.9183C141.763 72.6495 141.245 73.2424 140.514 73.2424C139.783 73.2424 139.113 72.6495 139.019 71.9183C138.924 71.1872 139.442 70.5943 140.174 70.5943C140.907 70.5924 141.576 71.1854 141.669 71.9183Z" fill="url(#paint25_linear_40_2)"/>
<path d="M94.2293 144.204H92.5433C91.2629 144.204 90.0897 143.166 89.9261 141.885L88.522 130.936C88.3583 129.656 89.2622 128.617 90.5444 128.617H92.2305C93.5109 128.617 94.684 129.656 94.8477 130.936L96.2518 141.885C96.4155 143.166 95.5115 144.204 94.2293 144.204Z" fill="url(#paint26_linear_40_2)"/>
<path d="M92.5433 144.204C91.2629 144.204 90.0897 143.166 89.9261 141.885L88.522 130.936C88.3583 129.656 89.2622 128.617 90.5444 128.617C91.8249 128.617 92.998 129.656 93.1617 130.936L94.5658 141.885C94.7295 143.166 93.8255 144.204 92.5433 144.204Z" fill="url(#paint27_linear_40_2)"/>
<path d="M91.4193 122.311H89.7333C88.4529 122.311 87.2797 121.273 87.1161 119.992L85.712 109.043C85.5483 107.763 86.4522 106.724 87.7344 106.724H89.4205C90.7009 106.724 91.874 107.763 92.0377 109.043L93.4418 119.992C93.6073 121.273 92.7015 122.311 91.4193 122.311Z" fill="url(#paint28_linear_40_2)"/>
<path d="M89.7352 122.311C88.4548 122.311 87.2816 121.273 87.1179 119.992L85.7138 109.043C85.5502 107.763 86.4541 106.724 87.7363 106.724C89.0168 106.724 90.1899 107.763 90.3536 109.043L91.7577 119.992C91.9214 121.273 91.0156 122.311 89.7352 122.311Z" fill="url(#paint29_linear_40_2)"/>
<path opacity="0.4" d="M177.542 116.913H132.4C129.337 116.913 127.149 119.396 127.513 122.459L133.526 174.09L142.212 164.638H183.666L177.542 116.913Z" fill="url(#paint30_linear_40_2)"/>
<path opacity="0.5" d="M215.737 108.514H152.296C146.727 108.514 142.214 113.028 142.214 118.596V172.093L153.318 162.539H215.737C221.306 162.539 225.818 158.025 225.818 152.458V118.596C225.818 113.028 221.304 108.514 215.737 108.514Z" fill="url(#paint31_linear_40_2)"/>
<path d="M215.737 108.514H152.296C146.727 108.514 142.214 113.028 142.214 118.596V172.093L153.318 162.539H215.737C221.306 162.539 225.818 158.025 225.818 152.458V118.596C225.818 113.028 221.304 108.514 215.737 108.514Z" stroke="url(#paint32_linear_40_2)" stroke-width="2" stroke-miterlimit="10"/>
<path d="M211.843 155.648H152.212C151.221 155.648 150.417 154.844 150.417 153.853V115.9C150.417 114.909 151.221 114.105 152.212 114.105H211.843C212.834 114.105 213.638 114.909 213.638 115.9V153.853C213.638 154.844 212.834 155.648 211.843 155.648Z" fill="url(#paint33_linear_40_2)"/>
<path d="M215.267 155.648H155.637C154.646 155.648 153.842 154.844 153.842 153.853V115.9C153.842 114.909 154.646 114.105 155.637 114.105H215.267C216.259 114.105 217.063 114.909 217.063 115.9V153.853C217.063 154.844 216.259 155.648 215.267 155.648Z" fill="url(#paint34_linear_40_2)"/>
<path d="M185.452 131.001L155.439 154.402C156.295 155.175 157.425 155.648 158.669 155.648H212.234C213.478 155.648 214.607 155.173 215.464 154.402L185.452 131.001Z" fill="url(#paint35_linear_40_2)"/>
<path d="M185.452 138.751L215.464 115.351C214.607 114.578 213.478 114.105 212.234 114.105H158.669C157.425 114.105 156.295 114.58 155.439 115.351L185.452 138.751Z" fill="url(#paint36_linear_40_2)"/>
<path d="M155.439 115.351L185.452 138.751L215.464 115.351" stroke="#CC5833" stroke-width="1.4422" stroke-miterlimit="10"/>
<path d="M211.794 126.498C218.638 126.498 224.187 120.95 224.187 114.105C224.187 107.26 218.638 101.712 211.794 101.712C204.949 101.712 199.4 107.26 199.4 114.105C199.4 120.95 204.949 126.498 211.794 126.498Z" fill="#D4003C"/>
<path d="M213.425 126.498C220.27 126.498 225.818 120.95 225.818 114.105C225.818 107.26 220.27 101.712 213.425 101.712C206.581 101.712 201.032 107.26 201.032 114.105C201.032 120.95 206.581 126.498 213.425 126.498Z" fill="#FF335B"/>
<path d="M216.284 120.274H213.898V110.06L211.654 110.118V108.289L216.284 107.816V120.274V120.274Z" fill="#D4003C"/>
<path d="M215.175 120.274H212.81V110.156L210.588 110.215V108.401L215.175 107.934V120.274Z" fill="white"/>
<path d="M213.425 88.1437V95.6516" stroke="white" stroke-width="4" stroke-miterlimit="10" stroke-linecap="round" stroke-linejoin="round"/>
<path d="M231.782 95.748L226.473 101.057" stroke="white" stroke-width="4" stroke-miterlimit="10" stroke-linecap="round" stroke-linejoin="round"/>
<path d="M239.385 114.105H231.877" stroke="white" stroke-width="4" stroke-miterlimit="10" stroke-linecap="round" stroke-linejoin="round"/>
<path d="M195.068 95.748L200.377 101.057" stroke="white" stroke-width="4" stroke-miterlimit="10" stroke-linecap="round" stroke-linejoin="round"/>
<path d="M72.8768 61.5876L79.0298 65.8909" stroke="white" stroke-width="4" stroke-miterlimit="10" stroke-linecap="round" stroke-linejoin="round"/>
<path d="M89.6278 50.9023L90.9355 58.2956" stroke="white" stroke-width="4" stroke-miterlimit="10" stroke-linecap="round" stroke-linejoin="round"/>
<path d="M109.029 55.191L104.726 61.3439" stroke="white" stroke-width="4" stroke-miterlimit="10" stroke-linecap="round" stroke-linejoin="round"/>
<path d="M68.5881 80.9886L75.9815 79.6791" stroke="white" stroke-width="4" stroke-miterlimit="10" stroke-linecap="round" stroke-linejoin="round"/>
</svg>
